HIERARCHY
ROOT root
{
	OFFSET	0	13.1	24.9
	CHANNELS 6  Xposition Yposition Zposition Xrotation Yrotation Zrotation
	JOINT spine_1
	{
		OFFSET	0	9.99999	0
		CHANNELS 3  Xrotation Yrotation Zrotation
		JOINT spine_2
		{
			OFFSET	0	112	-10
			CHANNELS 3  Xrotation Yrotation Zrotation
			JOINT spine_3
			{
				OFFSET	0	206.5	19.3
				CHANNELS 3  Xrotation Yrotation Zrotation
				JOINT spine_4
				{
					OFFSET	0	110.4	14.6
					CHANNELS 3  Xrotation Yrotation Zrotation
					JOINT neck_1
					{
						OFFSET	0	71.8	-50.3
						CHANNELS 3  Xrotation Yrotation Zrotation
						JOINT neck_2
						{
							OFFSET	0	86.2	-25.8
							CHANNELS 3  Xrotation Yrotation Zrotation
							JOINT head_ee
							{
								OFFSET	0	179.8	-8.7
								CHANNELS 3  Xrotation Yrotation Zrotation
								End Site
								{
									OFFSET	1	0	0
								}
							}
						}
					}
					JOINT left_clavicle
					{
						OFFSET	-43.2	22.4	-70.8
						CHANNELS 3  Xrotation Yrotation Zrotation
						JOINT left_shoulder
						{
							OFFSET	-93.9	-5.79999	48.7
							CHANNELS 3  Xrotation Yrotation Zrotation
							JOINT left_elbow
							{
								OFFSET	-291.4	-30.8	15.2
								CHANNELS 3  Xrotation Yrotation Zrotation
								JOINT left_lowarm_twist
								{
									OFFSET	-110.7	-3.89999	13.6
									CHANNELS 3  Xrotation Yrotation Zrotation
									JOINT left_hand
									{
										OFFSET	-110.7	-3.89999	13.6
										CHANNELS 3  Xrotation Yrotation Zrotation
										JOINT left_ee
										{
											OFFSET	-80.8	-5.10001	12.1
											CHANNELS 3  Xrotation Yrotation Zrotation
											End Site
											{
												OFFSET	1	0	0
											}
										}
									}
								}
							}
						}
					}
					JOINT right_clavicle
					{
						OFFSET	43.2	22.4	-70.8
						CHANNELS 3  Xrotation Yrotation Zrotation
						JOINT right_shoulder
						{
							OFFSET	93.9	-5.79999	48.7
							CHANNELS 3  Xrotation Yrotation Zrotation
							JOINT right_elbow
							{
								OFFSET	291.4	-30.8	15.2
								CHANNELS 3  Xrotation Yrotation Zrotation
								JOINT right_lowarm_twist
								{
									OFFSET	110.7	-3.89999	13.6
									CHANNELS 3  Xrotation Yrotation Zrotation
									JOINT right_hand
									{
										OFFSET	110.7	-3.89999	13.6
										CHANNELS 3  Xrotation Yrotation Zrotation
										JOINT right_ee
										{
											OFFSET	80.8	-5.10001	12.1
											CHANNELS 3  Xrotation Yrotation Zrotation
											End Site
											{
												OFFSET	1	0	0
											}
										}
									}
								}
							}
						}
					}
				}
			}
		}
	}
	JOINT left_hip
	{
		OFFSET	-82.8	-127.5	0.300001
		CHANNELS 3  Xrotation Yrotation Zrotation
		JOINT left_knee
		{
			OFFSET	-28.2	-396.7	2.2
			CHANNELS 3  Xrotation Yrotation Zrotation
			JOINT left_ankle
			{
				OFFSET	-11.7	-411.3	35.4
				CHANNELS 3  Xrotation Yrotation Zrotation
				JOINT left_toes
				{
					OFFSET	0	-60	-88.6
					CHANNELS 3  Xrotation Yrotation Zrotation
					JOINT left_foot_ee
					{
						OFFSET	-22.5	-16.5	-42.2
						CHANNELS 3  Xrotation Yrotation Zrotation
						End Site
						{
							OFFSET	1	0	0
						}
					}
				}
			}
		}
	}
	JOINT right_hip
	{
		OFFSET	82.8	-127.5	0.300001
		CHANNELS 3  Xrotation Yrotation Zrotation
		JOINT right_knee
		{
			OFFSET	28.2	-396.7	2.2
			CHANNELS 3  Xrotation Yrotation Zrotation
			JOINT right_ankle
			{
				OFFSET	11.7	-411.3	35.4
				CHANNELS 3  Xrotation Yrotation Zrotation
				JOINT right_toes
				{
					OFFSET	0	-60	-88.6
					CHANNELS 3  Xrotation Yrotation Zrotation
					JOINT right_foot_ee
					{
						OFFSET	22.5	-16.5	-42.2
						CHANNELS 3  Xrotation Yrotation Zrotation
						End Site
						{
							OFFSET	1	0	0
						}
					}
				}
			}
		}
	}
}
MOTION
Frames: 9
Frame Time: 0.02
2865.02 722.185 -447.455 -178.544 -61.0554 -169.668 2.23006 -0.184735 -0.607455 2.23025 -0.145707 -0.617978 2.23182 -0.0372841 -0.633827 2.23129 -0.136915 -0.619985 -10.8743 -12.142 -7.27211 -10.8681 -18.1549 -10.2241 -0.0 0.0 -0.0 7.719 13.0571 14.4726 -36.997 -8.10898 59.2027 0.327788 -9.2232 0.0264401 -1.35015 -0.0495237 0.1653 3.85335 17.8538 32.592 -0.0 0.0 -0.0 8.68311 1.34525 -16.9959 -13.2124 11.3962 -50.8854 3.67683 61.2159 -2.17565 14.4226 -0.280904 1.8161 -1.36526 5.99769 11.8359 0.0 0.0 0.0 27.3056 -3.9937 -16.4963 -1.48503 0.0582912 0.220438 -10.2168 28.3921 1.61838 -37.7768 0.0 0.0 -0.0 0.0 -0.0 1.18231 33.7938 -16.0575 -24.3577 -0.218516 -3.70344 17.1743 -7.86075 2.37457 23.7234 -0.0 -0.0 0.0 0.0 0.0 
2897.27 724.945 -446.503 -178.443 -60.119 -169.152 2.32043 -0.169538 -0.869965 2.32084 -0.113839 -0.878989 2.32255 0.0375898 -0.885532 2.32147 -0.10273 -0.880357 -9.67477 -13.7863 -6.75683 -9.69022 -21.3715 -9.96647 -0.0 0.0 -0.0 8.14999 13.0939 15.2183 -36.8692 -8.29676 58.5844 0.40812 -11.4297 0.0408427 -1.12291 -0.040916 0.13756 3.80145 16.7938 31.9481 -0.0 0.0 -0.0 8.31653 1.78324 -16.254 -16.368 10.5122 -50.8801 3.40172 59.2997 -1.93675 14.333 -0.28058 1.80466 -1.22501 6.91654 11.2743 0.0 0.0 0.0 27.3061 -4.2931 -16.0178 -3.4874 0.127796 0.519867 -12.1895 29.1439 1.94453 -37.8361 0.0 0.0 -0.0 0.0 -0.0 -1.09622 34.5584 -15.2634 -23.3372 -0.241105 -3.54846 16.2235 -7.60585 2.25203 23.1385 -0.0 -0.0 0.0 0.0 0.0 
2931.79 735.267 -445.693 -179.41 -59.5062 -170.465 2.32589 -0.079738 -1.02047 2.32647 -0.0146444 -1.02348 2.32665 0.159898 -1.01102 2.32522 -0.00177209 -1.02358 -9.57095 -14.8 -7.03265 -9.59437 -23.0803 -10.4693 -0.0 0.0 -0.0 8.33583 13.1682 15.5358 -36.6604 -8.34699 58.162 0.485336 -13.5188 0.0575242 -1.30757 -0.0479029 0.160105 3.54358 16.1839 29.8996 -0.0 0.0 -0.0 8.19191 1.77672 -15.9996 -18.8332 9.8807 -51.3699 2.97026 55.7875 -1.57251 14.2703 -0.280342 1.79665 -1.1513 6.81519 10.7232 0.0 0.0 0.0 25.2037 -4.29735 -14.7309 -5.95097 0.198875 0.891238 -8.21874 28.9321 1.30291 -36.3997 0.0 0.0 -0.0 0.0 -0.0 -2.20854 34.9027 -14.8502 -24.7171 -0.209905 -3.75791 14.7215 -8.31537 2.05625 21.6145 -0.0 -0.0 0.0 0.0 0.0 
2965.75 739.317 -447.531 178.387 -58.7831 -172.45 2.34088 -0.0343308 -1.37122 2.34192 0.052985 -1.37063 2.34048 0.285381 -1.34164 2.33797 0.0699324 -1.36987 -10.463 -16.6312 -8.32354 -10.535 -25.898 -12.3685 -0.0 0.0 -0.0 8.78847 13.5474 16.2903 -36.0702 -8.55111 57.5541 0.56203 -15.5581 0.0767794 -1.34439 -0.0493046 0.164599 2.80388 13.9258 24.0157 -0.0 0.0 -0.0 7.93036 2.1258 -15.4693 -22.2148 9.23343 -50.6423 2.72804 53.4898 -1.37493 14.0941 -0.279627 1.77415 -1.06886 6.8204 10.1599 0.0 0.0 0.0 24.1895 -4.37391 -13.848 -12.5532 0.310031 1.89768 -4.58304 28.31 0.719582 -35.7412 0.0 0.0 -0.0 0.0 -0.0 -5.9142 35.4536 -12.7357 -23.9748 -0.227315 -3.64534 13.3031 -10.3987 1.87044 20.0336 -0.0 -0.0 0.0 0.0 0.0 
2992.45 742.795 -448.527 175.44 -59.7921 -175.345 2.40192 -0.302833 -1.58488 2.40329 -0.201382 -1.60094 2.40876 0.0719032 -1.61195 2.40518 -0.183543 -1.60308 -8.54454 -17.8668 -6.70602 -8.58628 -28.8681 -10.6927 -0.0 0.0 -0.0 8.84659 14.081 16.3365 -35.5695 -9.0713 56.5742 0.698426 -19.0846 0.117408 -2.39194 -0.0903953 0.292036 2.32227 13.3108 20.5264 -0.0 0.0 -0.0 7.52535 1.73887 -14.6458 -23.9079 8.63736 -51.4963 2.36753 49.54 -1.09257 14.1898 -0.280024 1.78637 -0.974582 6.35582 9.31183 0.0 0.0 0.0 22.8299 -4.03781 -12.2492 -15.4867 0.322082 2.34756 -4.71518 26.594 0.732949 -35.3183 0.0 0.0 -0.0 0.0 -0.0 -6.81524 35.6296 -11.7031 -25.278 -0.19578 -3.84284 14.2411 -10.1229 1.99471 19.0737 -0.0 -0.0 0.0 0.0 0.0 
3020.58 745.603 -447.663 173.951 -60.4628 -176.853 2.50663 -0.448391 -1.89134 2.50856 -0.327154 -1.91603 2.51925 -0.00264811 -1.94374 2.51411 -0.309536 -1.91895 -9.05256 -19.3249 -5.46306 -9.24964 -32.6072 -10.0171 -0.0 0.0 -0.0 8.90736 14.6675 16.3784 -34.9147 -9.4692 55.5791 0.81275 -21.9302 0.157471 -3.93297 -0.155069 0.478113 1.53439 12.1063 14.8738 -0.0 0.0 -0.0 6.95494 1.53261 -13.4971 -26.4731 8.15534 -51.5004 2.13713 46.6266 -0.92107 14.1926 -0.280035 1.78673 -0.787331 6.01264 7.88504 0.0 0.0 0.0 20.4802 -3.51277 -10.9649 -16.4235 0.321077 2.49129 -1.99407 24.6701 0.305233 -35.0702 0.0 0.0 -0.0 0.0 -0.0 -7.19246 35.658 -10.443 -27.5595 -0.129778 -4.18673 13.7901 -11.3496 1.93715 18.3697 -0.0 -0.0 0.0 0.0 0.0 
3043.63 749.716 -449.0 174.37 -60.7964 -176.418 2.7129 -0.481734 -2.0319 2.71513 -0.35149 -2.05842 2.72733 -0.0104648 -2.08818 2.7214 -0.340051 -2.06034 -9.74792 -20.2889 -3.57236 -10.174 -35.8614 -8.72606 -0.0 0.0 -0.0 9.01386 14.8693 16.5392 -33.6686 -10.113 54.5768 0.928999 -24.7115 0.203506 -5.0037 -0.202946 0.606361 0.761924 10.4468 9.23022 -0.0 0.0 -0.0 6.55597 1.30076 -12.7008 -28.7148 7.65956 -52.5892 1.9211 43.5765 -0.76799 14.1967 -0.280052 1.78726 -0.511022 5.24601 5.67708 0.0 0.0 0.0 19.0495 -3.3544 -10.1426 -17.046 0.31911 2.58677 1.88588 23.8762 -0.285121 -34.5849 0.0 0.0 -0.0 0.0 -0.0 -6.51586 35.8819 -9.87296 -28.7669 -0.0893194 -4.36761 12.6192 -12.7346 1.7837 17.536 -0.0 -0.0 0.0 0.0 0.0 
3061.8 751.413 -449.016 173.539 -60.7398 -176.596 2.83079 -0.465243 -2.29967 2.83367 -0.318007 -2.32459 2.84589 0.0612404 -2.34543 2.83834 -0.309844 -2.3257 -11.7397 -20.9514 -2.88914 -12.615 -37.9329 -9.07196 -0.0 0.0 -0.0 9.1204 14.2223 16.7968 -31.465 -10.9924 53.0822 1.1144 -28.8996 0.28717 -5.29744 -0.2165 0.641389 0.199783 8.79001 4.94269 -0.0 0.0 -0.0 6.09569 2.15134 -11.7662 -30.7602 7.65435 -54.0161 1.76539 41.1667 -0.663026 14.2462 -0.280249 1.79358 -0.352463 2.90524 3.59935 0.0 0.0 0.0 17.226 -3.70584 -10.0985 -17.4074 0.317491 2.6422 7.29104 23.2763 -1.08366 -34.5064 0.0 0.0 -0.0 0.0 -0.0 -2.23199 34.9913 -12.0453 -31.0952 -0.000560716 -4.71388 10.5655 -13.3813 1.50583 15.8768 -0.0 -0.0 0.0 0.0 0.0 
3069.73 753.376 -446.936 174.092 -60.3311 -175.726 2.93746 -0.419733 -2.54588 2.94103 -0.256936 -2.56741 2.95154 0.15602 -2.57551 2.94237 -0.252554 -2.56784 -12.5371 -21.0777 -2.45051 -13.6153 -38.5755 -9.04855 -0.0 0.0 -0.0 9.19313 13.7941 16.9721 -29.9514 -11.3964 52.0985 1.26191 -32.0086 0.361962 -5.34138 -0.218542 0.646622 -0.766387 6.51575 -2.28124 -0.0 0.0 -0.0 6.08767 3.22161 -11.724 -32.9209 7.59807 -55.6548 1.59355 38.2846 -0.553164 13.2857 -0.275459 1.67098 0.0109945 0.552908 0.159675 0.0 0.0 0.0 14.5903 -6.42225 -10.2304 -14.6309 0.320946 2.21626 11.7587 26.7646 -1.75644 -34.3295 0.0 0.0 -0.0 0.0 -0.0 0.582076 34.1353 -14.1203 -33.0478 0.0846877 -5.00136 10.9286 -14.4766 1.55882 13.5063 -0.0 -0.0 0.0 0.0 0.0 
